<svg width="680" height="55" viewBox="0 0 680 55" fill="none" xmlns="http://www.w3.org/2000/svg">
<path fill-rule="evenodd" clip-rule="evenodd" d="M21.9267 24.8471C21.3988 24.8314 21.0266 24.3909 21.0612 23.8666L21.1003 23.2748C21.1283 22.8508 21.4134 22.4903 21.7916 22.3239H30.2259C32.7588 22.3239 34.8122 20.2706 34.8122 17.7377C34.8122 15.2048 32.7588 13.1515 30.2259 13.1515H24.6993C21.3614 13.1012 17.5253 13.0609 15.7502 13.0453C15.2076 13.0405 14.7693 12.6167 14.7452 12.078L14.7299 11.7376C14.7045 11.1696 15.1482 10.6921 15.7205 10.6838C19.2024 10.6334 29.8346 10.541 30.7821 10.6669C31.8751 10.8122 32.9203 11.197 33.8392 11.7927C34.7582 12.3884 35.5271 13.1793 36.0883 14.1064C36.6496 15.0334 36.9886 16.0724 37.08 17.1455C37.1714 18.2186 37.0129 19.2981 36.6162 20.3028C36.2194 21.3076 35.5949 22.2117 34.7894 22.9474C33.9838 23.683 33.0182 24.2311 31.9648 24.5506C31.0655 24.8234 24.5055 24.9235 21.9267 24.8471Z" fill="#155EEF"/>
<path fill-rule="evenodd" clip-rule="evenodd" d="M14.9381 32.7202C14.9523 32.2693 15.3056 31.9276 15.7514 31.8842L16.2872 31.832C16.9279 31.7695 17.4944 32.3382 17.4916 32.9868C17.4882 33.7622 17.518 34.6984 17.5609 35.484L17.5609 35.6363C17.5609 35.894 17.5819 36.1469 17.6223 36.3932C17.6303 36.4882 17.6385 36.5759 17.6466 36.6551C17.6673 36.7015 17.6862 36.7437 17.7034 36.7822C18.2136 38.7924 20.0352 40.2795 22.2041 40.2795C24.7684 40.2795 26.8473 38.2006 26.8473 35.6363L26.8473 26.2119C26.9646 25.8034 27.3349 25.5047 27.7778 25.4982L28.1788 25.4923C28.7189 25.4843 29.1666 25.9157 29.1773 26.4595C29.2284 29.0382 29.3129 35.4059 29.1903 36.3312C29.045 37.4268 28.6601 38.4745 28.0645 39.3957C27.4688 40.3168 26.6778 41.0876 25.7508 41.6502C24.8238 42.2129 23.7848 42.5527 22.7116 42.6444C21.6385 42.736 20.5591 42.577 19.5543 42.1794C18.5495 41.7817 17.6454 41.1556 16.9098 40.3481C16.1741 39.5406 15.626 38.5726 15.3065 37.5167C15.043 36.6456 14.8926 34.1731 14.9381 32.7202Z" fill="#155EEF"/>
<rect x="21.0539" y="23.0882" width="2.29312" height="13.7587" rx="1.01916" fill="#155EEF"/>
<path d="M28.1521 16.4635C28.715 16.4635 29.1713 16.9198 29.1713 17.4827L29.1713 20.7719C29.1713 21.3348 28.715 21.7911 28.1521 21.7911L27.8883 21.7911C27.3402 21.7911 26.8902 21.3576 26.8698 20.8099L26.8335 19.835C26.8132 19.2908 26.3686 18.8587 25.8241 18.8538L15.9131 18.7656C15.3538 18.7606 14.903 18.3058 14.903 17.7465L14.903 17.4827C14.903 16.9198 15.3593 16.4635 15.9221 16.4635L28.1521 16.4635Z" fill="#155EEF"/>
<path d="M60.928 39.52C59.168 39.52 57.7013 39.0613 56.528 38.144C55.3653 37.2267 54.5493 35.9893 54.08 34.432L57.888 33.52C58.0053 34.1707 58.3467 34.7307 58.912 35.2C59.4773 35.6693 60.1013 35.904 60.784 35.904C61.232 35.904 61.7067 35.7867 62.208 35.552C62.7093 35.3067 63.0827 34.9173 63.328 34.384C63.4773 34.0427 63.5627 33.6373 63.584 33.168C63.616 32.688 63.632 32.1333 63.632 31.504V16H67.536V31.504C67.536 32.2187 67.5307 32.848 67.52 33.392C67.52 33.9253 67.4667 34.432 67.36 34.912C67.264 35.3813 67.0667 35.8667 66.768 36.368C66.1387 37.456 65.3173 38.256 64.304 38.768C63.2907 39.2693 62.1653 39.52 60.928 39.52ZM78.1913 39.536C76.9113 39.536 75.8553 39.3227 75.0233 38.896C74.1913 38.4693 73.5299 37.9253 73.0393 37.264C72.5486 36.6027 72.1859 35.8987 71.9513 35.152C71.7166 34.4053 71.5619 33.7013 71.4873 33.04C71.4233 32.368 71.3913 31.824 71.3913 31.408V21.76H75.2953V30.08C75.2953 30.6133 75.3326 31.216 75.4073 31.888C75.4819 32.5493 75.6526 33.1893 75.9193 33.808C76.1966 34.416 76.6019 34.9173 77.1353 35.312C77.6793 35.7067 78.4099 35.904 79.3273 35.904C79.8179 35.904 80.3033 35.824 80.7833 35.664C81.2633 35.504 81.6953 35.232 82.0793 34.848C82.4739 34.4533 82.7886 33.9147 83.0233 33.232C83.2579 32.5493 83.3753 31.6853 83.3753 30.64L85.6633 31.616C85.6633 33.088 85.3753 34.4213 84.7993 35.616C84.2339 36.8107 83.3966 37.7653 82.2873 38.48C81.1779 39.184 79.8126 39.536 78.1913 39.536ZM83.8393 39.04V33.68H83.3753V21.76H87.2473V39.04H83.8393ZM97.7745 39.52C95.6412 39.52 93.9078 39.04 92.5745 38.08C91.2412 37.12 90.4305 35.7707 90.1425 34.032L94.0785 33.424C94.2812 34.2773 94.7292 34.9493 95.4225 35.44C96.1158 35.9307 96.9905 36.176 98.0465 36.176C98.9745 36.176 99.6892 35.9947 100.191 35.632C100.703 35.2587 100.959 34.752 100.959 34.112C100.959 33.7173 100.863 33.4027 100.671 33.168C100.489 32.9227 100.084 32.688 99.4545 32.464C98.8252 32.24 97.8598 31.9573 96.5585 31.616C95.1078 31.232 93.9558 30.8213 93.1025 30.384C92.2492 29.936 91.6358 29.408 91.2625 28.8C90.8892 28.192 90.7025 27.456 90.7025 26.592C90.7025 25.5147 90.9852 24.576 91.5505 23.776C92.1158 22.976 92.9052 22.3627 93.9185 21.936C94.9318 21.4987 96.1265 21.28 97.5025 21.28C98.8465 21.28 100.036 21.488 101.071 21.904C102.116 22.32 102.959 22.912 103.599 23.68C104.239 24.448 104.633 25.3493 104.783 26.384L100.847 27.088C100.751 26.352 100.415 25.7707 99.8385 25.344C99.2732 24.9173 98.5158 24.6773 97.5665 24.624C96.6598 24.5707 95.9292 24.7093 95.3745 25.04C94.8198 25.36 94.5425 25.8133 94.5425 26.4C94.5425 26.7307 94.6545 27.0133 94.8785 27.248C95.1025 27.4827 95.5505 27.7173 96.2225 27.952C96.9052 28.1867 97.9185 28.4747 99.2625 28.816C100.639 29.168 101.737 29.5733 102.559 30.032C103.391 30.48 103.988 31.0187 104.351 31.648C104.724 32.2773 104.911 33.04 104.911 33.936C104.911 35.6747 104.276 37.04 103.007 38.032C101.748 39.024 100.004 39.52 97.7745 39.52ZM117.903 39.04C116.762 39.2533 115.642 39.344 114.543 39.312C113.455 39.2907 112.479 39.0933 111.615 38.72C110.751 38.336 110.095 37.7333 109.647 36.912C109.252 36.1653 109.044 35.4027 109.023 34.624C109.002 33.8453 108.991 32.9653 108.991 31.984V16.96H112.831V31.76C112.831 32.4533 112.836 33.0613 112.847 33.584C112.868 34.1067 112.98 34.5333 113.183 34.864C113.567 35.504 114.18 35.8613 115.023 35.936C115.866 36.0107 116.826 35.968 117.903 35.808V39.04ZM105.855 24.784V21.76H117.903V24.784H105.855ZM126.745 39.04V16H136.265C136.489 16 136.777 16.0107 137.129 16.032C137.481 16.0427 137.806 16.0747 138.105 16.128C139.438 16.3307 140.537 16.7733 141.401 17.456C142.276 18.1387 142.921 19.0027 143.337 20.048C143.764 21.0827 143.977 22.2347 143.977 23.504C143.977 24.7627 143.764 25.9147 143.337 26.96C142.91 27.9947 142.26 28.8533 141.385 29.536C140.521 30.2187 139.428 30.6613 138.105 30.864C137.806 30.9067 137.476 30.9387 137.113 30.96C136.761 30.9813 136.478 30.992 136.265 30.992H130.601V39.04H126.745ZM130.601 27.392H136.105C136.318 27.392 136.558 27.3813 136.825 27.36C137.092 27.3387 137.337 27.296 137.561 27.232C138.201 27.072 138.702 26.7893 139.065 26.384C139.438 25.9787 139.7 25.52 139.849 25.008C140.009 24.496 140.089 23.9947 140.089 23.504C140.089 23.0133 140.009 22.512 139.849 22C139.7 21.4773 139.438 21.0133 139.065 20.608C138.702 20.2027 138.201 19.92 137.561 19.76C137.337 19.696 137.092 19.6587 136.825 19.648C136.558 19.6267 136.318 19.616 136.105 19.616H130.601V27.392ZM146.543 39.04V21.76H149.951V25.968L149.535 25.424C149.748 24.848 150.031 24.3253 150.383 23.856C150.745 23.376 151.177 22.9813 151.679 22.672C152.105 22.384 152.575 22.16 153.087 22C153.609 21.8293 154.143 21.728 154.687 21.696C155.231 21.6533 155.759 21.6747 156.271 21.76V25.36C155.759 25.2107 155.167 25.1627 154.495 25.216C153.833 25.2693 153.236 25.456 152.703 25.776C152.169 26.064 151.732 26.432 151.391 26.88C151.06 27.328 150.815 27.84 150.655 28.416C150.495 28.9813 150.415 29.5947 150.415 30.256V39.04H146.543ZM166.003 39.52C164.275 39.52 162.766 39.1307 161.475 38.352C160.185 37.5733 159.182 36.5013 158.467 35.136C157.763 33.76 157.411 32.1813 157.411 30.4C157.411 28.5867 157.774 26.9973 158.499 25.632C159.225 24.2667 160.233 23.2 161.523 22.432C162.814 21.664 164.307 21.28 166.003 21.28C167.742 21.28 169.257 21.6693 170.547 22.448C171.838 23.2267 172.841 24.304 173.555 25.68C174.27 27.0453 174.627 28.6187 174.627 30.4C174.627 32.192 174.265 33.776 173.539 35.152C172.825 36.5173 171.822 37.5893 170.531 38.368C169.241 39.136 167.731 39.52 166.003 39.52ZM166.003 35.904C167.539 35.904 168.681 35.392 169.427 34.368C170.174 33.344 170.547 32.0213 170.547 30.4C170.547 28.7253 170.169 27.392 169.411 26.4C168.654 25.3973 167.518 24.896 166.003 24.896C164.969 24.896 164.115 25.1307 163.443 25.6C162.782 26.0587 162.291 26.704 161.971 27.536C161.651 28.3573 161.491 29.312 161.491 30.4C161.491 32.0747 161.87 33.4133 162.627 34.416C163.395 35.408 164.521 35.904 166.003 35.904ZM174.952 46.72V43.104H175.768C176.707 43.104 177.374 42.8853 177.768 42.448C178.163 42.0107 178.36 41.3653 178.36 40.512V21.76H182.2V42.24C182.2 43.6373 181.79 44.7307 180.968 45.52C180.158 46.32 179.027 46.72 177.576 46.72H174.952ZM178.36 19.136V15.6H182.2V19.136H178.36ZM193.947 39.52C192.198 39.52 190.662 39.1413 189.339 38.384C188.017 37.6267 186.982 36.576 186.235 35.232C185.499 33.888 185.131 32.3413 185.131 30.592C185.131 28.704 185.494 27.0667 186.219 25.68C186.945 24.2827 187.953 23.2 189.243 22.432C190.534 21.664 192.027 21.28 193.723 21.28C195.515 21.28 197.035 21.7013 198.283 22.544C199.542 23.376 200.475 24.5547 201.083 26.08C201.691 27.6053 201.921 29.4027 201.771 31.472H197.947V30.064C197.937 28.1867 197.606 26.816 196.955 25.952C196.305 25.088 195.281 24.656 193.883 24.656C192.305 24.656 191.131 25.1467 190.363 26.128C189.595 27.0987 189.211 28.5227 189.211 30.4C189.211 32.1493 189.595 33.504 190.363 34.464C191.131 35.424 192.251 35.904 193.723 35.904C194.673 35.904 195.489 35.696 196.171 35.28C196.865 34.8533 197.398 34.24 197.771 33.44L201.579 34.592C200.918 36.1493 199.894 37.36 198.507 38.224C197.131 39.088 195.611 39.52 193.947 39.52ZM187.995 31.472V28.56H199.883V31.472H187.995ZM212.205 39.52C210.424 39.52 208.904 39.1253 207.645 38.336C206.387 37.536 205.421 36.448 204.749 35.072C204.088 33.696 203.752 32.1387 203.741 30.4C203.752 28.6293 204.099 27.0613 204.781 25.696C205.475 24.32 206.456 23.2427 207.725 22.464C208.995 21.6747 210.504 21.28 212.253 21.28C214.216 21.28 215.875 21.776 217.229 22.768C218.595 23.7493 219.485 25.0933 219.901 26.8L216.061 27.84C215.763 26.912 215.267 26.192 214.573 25.68C213.88 25.1573 213.091 24.896 212.205 24.896C211.203 24.896 210.376 25.136 209.725 25.616C209.075 26.0853 208.595 26.736 208.285 27.568C207.976 28.4 207.821 29.344 207.821 30.4C207.821 32.0427 208.189 33.3707 208.925 34.384C209.661 35.3973 210.755 35.904 212.205 35.904C213.229 35.904 214.035 35.6693 214.621 35.2C215.219 34.7307 215.667 34.0533 215.965 33.168L219.901 34.048C219.368 35.808 218.435 37.1627 217.101 38.112C215.768 39.0507 214.136 39.52 212.205 39.52ZM232.596 39.04C231.454 39.2533 230.334 39.344 229.236 39.312C228.148 39.2907 227.172 39.0933 226.308 38.72C225.444 38.336 224.788 37.7333 224.34 36.912C223.945 36.1653 223.737 35.4027 223.716 34.624C223.694 33.8453 223.684 32.9653 223.684 31.984V16.96H227.524V31.76C227.524 32.4533 227.529 33.0613 227.54 33.584C227.561 34.1067 227.673 34.5333 227.876 34.864C228.26 35.504 228.873 35.8613 229.716 35.936C230.558 36.0107 231.518 35.968 232.596 35.808V39.04ZM220.548 24.784V21.76H232.596V24.784H220.548ZM242.343 39.52C240.21 39.52 238.477 39.04 237.143 38.08C235.81 37.12 234.999 35.7707 234.711 34.032L238.647 33.424C238.85 34.2773 239.298 34.9493 239.991 35.44C240.685 35.9307 241.559 36.176 242.615 36.176C243.543 36.176 244.258 35.9947 244.759 35.632C245.271 35.2587 245.527 34.752 245.527 34.112C245.527 33.7173 245.431 33.4027 245.239 33.168C245.058 32.9227 244.653 32.688 244.023 32.464C243.394 32.24 242.429 31.9573 241.127 31.616C239.677 31.232 238.525 30.8213 237.671 30.384C236.818 29.936 236.205 29.408 235.831 28.8C235.458 28.192 235.271 27.456 235.271 26.592C235.271 25.5147 235.554 24.576 236.119 23.776C236.685 22.976 237.474 22.3627 238.487 21.936C239.501 21.4987 240.695 21.28 242.071 21.28C243.415 21.28 244.605 21.488 245.639 21.904C246.685 22.32 247.527 22.912 248.167 23.68C248.807 24.448 249.202 25.3493 249.351 26.384L245.415 27.088C245.319 26.352 244.983 25.7707 244.407 25.344C243.842 24.9173 243.085 24.6773 242.135 24.624C241.229 24.5707 240.498 24.7093 239.943 25.04C239.389 25.36 239.111 25.8133 239.111 26.4C239.111 26.7307 239.223 27.0133 239.447 27.248C239.671 27.4827 240.119 27.7173 240.791 27.952C241.474 28.1867 242.487 28.4747 243.831 28.816C245.207 29.168 246.306 29.5733 247.127 30.032C247.959 30.48 248.557 31.0187 248.919 31.648C249.293 32.2773 249.479 33.04 249.479 33.936C249.479 35.6747 248.845 37.04 247.575 38.032C246.317 39.024 244.573 39.52 242.343 39.52Z" fill="#155EEF"/>
</svg>
